<svg height="512pt" viewBox="0 0 512 512" width="512pt" xmlns="http://www.w3.org/2000/svg"><path d="m497 241h-39.546875c-7.339844-99.453125-87-179.109375-186.453125-186.441406v-39.558594c0-8.285156-6.714844-15-15-15s-15 6.714844-15 15v39.558594c-99.453125 7.335937-179.113281 86.988281-186.453125 186.441406h-39.546875c-8.285156 0-15 6.714844-15 15s6.714844 15 15 15h39.546875c7.328125 99.464844 86.992187 179.128906 186.453125 186.464844v39.535156c0 8.285156 6.714844 15 15 15s15-6.714844 15-15v-39.535156c99.460938-7.332032 179.125-87 186.457031-186.464844h39.542969c8.285156 0 15-6.714844 15-15s-6.714844-15-15-15zm-145.273438-60.929688-77.328124 174.90625c-2.410157 5.453126-7.804688 8.933594-13.710938 8.933594-.292969 0-.585938-.007812-.878906-.023437-6.246094-.367188-11.609375-4.566407-13.457032-10.546875l-20.707031-66.972656-66.972656-20.703126c-5.976563-1.851562-10.179687-7.214843-10.542969-13.460937-.363281-6.242187 3.1875-12.0625 8.90625-14.589844l174.90625-77.328125c5.667969-2.503906 12.292969-1.265625 16.671875 3.113282 4.378907 4.382812 5.617188 11.003906 3.113281 16.671874zm0 0"/><path d="m242.066406 260.046875c4.734375 1.460937 8.4375 5.167969 9.902344 9.898437l11.203125 36.234376 45.4375-102.777344-102.78125 45.4375zm0 0"/></svg>